<?xml version="1.0" encoding="UTF-8"?>
<svg width="200px" height="74px" viewBox="0 0 200 74" version="1.1" xmlns="http://www.w3.org/2000/svg" xmlns:xlink="http://www.w3.org/1999/xlink">
    <title>AdmiralGroup-Orbital-RGB</title>
    <g id="Symbols" stroke="none" stroke-width="1" fill="none" fill-rule="evenodd">
        <g id="Header" transform="translate(-40.000000, -26.000000)">
            <g id="AdmiralGroup-Orbital-RGB" transform="translate(40.000000, 26.000000)">
                <path d="M63.5051275,49.4289367 C63.5194394,49.4092012 63.619623,49.2727606 63.6991974,49.1575737 C63.734691,49.1059578 63.7936562,49.075216 63.8564379,49.075216 L69.8107771,49.075216 C69.8909239,49.075216 69.9626745,49.125124 69.9901534,49.2002707 C70.565875,50.7758838 71.0435121,52.9532396 71.0870789,54.5282834 C71.0870789,54.5518142 71.0839672,54.5749654 71.0759525,54.5969781 C70.4983226,56.215478 68.6990256,61.8393333 60.9766849,65.7329175 C57.2124541,67.6307505 52.6204207,68.5461735 47.443506,68.2662712 C42.0662242,67.9753625 36.1643621,66.4014572 30.1128926,63.3885691 C23.9671551,60.3291888 18.4387392,56.1712629 13.8203718,51.3575114 C9.26421366,46.6084696 5.71905091,41.3521878 3.35319194,36.0247444 C1.07186883,30.8885834 0,25.7926524 0,21.0864973 C0,1.38877144 18.5095356,0.0399266701 22.2987646,0.00216357101 C39.9812609,-0.173937715 50.0303413,10.4587467 50.0303413,10.4587467 C50.1007561,10.5331344 50.0992294,10.6496496 50.0269064,10.7223294 C49.9543926,10.7950091 49.8372255,10.797476 49.7618493,10.7282121 C49.7618493,10.7282121 37.3138971,-0.700343931 20.3078784,1.65482101 C16.1751629,2.22715019 12.5639744,3.78739241 9.88630595,6.4050014 C6.36728634,9.84504894 4.98666127,14.607564 5.51047825,19.8604301 C6.30164225,27.7910604 11.4253165,36.8320018 20.1105645,44.1758809 C28.8021098,51.5248836 39.1009812,55.5167657 47.8646587,55.659848 C53.6764509,55.75492 58.8110023,54.1569146 62.3368916,50.7102254 C62.7479305,50.3083045 63.1299639,49.8883561 63.4828009,49.4518982 C63.4894798,49.4435485 63.496922,49.4357682 63.5051275,49.4289367 Z" id="Orbit" fill="#C20060"></path>
                <path d="M141.040344,55.7131718 L141.178502,54.5776221 C141.188234,54.4971621 141.162855,54.4163225 141.108851,54.3557876 C141.054656,54.2950631 140.97699,54.260526 140.895508,54.2607157 C140.895508,54.2607157 138.564379,54.2647008 138.564379,54.2647008 C138.420687,54.2648905 138.299513,54.3717279 138.282338,54.5136716 C138.282338,54.5136716 135.949683,73.6829038 135.949683,73.6829038 C135.93976,73.7633639 135.96514,73.8442035 136.019334,73.9047383 C136.073529,73.9654629 136.151195,74 136.232678,74 C136.232678,74 138.590904,73.9958252 138.590904,73.9958252 C138.734596,73.9956354 138.855579,73.8887981 138.872944,73.7468544 C138.872944,73.7468544 139.632431,67.5060753 139.632431,67.5060753 C140.088505,68.0516477 140.60946,68.4478756 141.192623,68.6981747 C141.958408,69.0270363 142.758731,69.1906131 143.593213,69.189095 C144.591804,69.1873872 145.513684,69.0021772 146.359043,68.6353628 C147.204401,68.2683586 147.951103,67.747076 148.598575,67.0713253 C149.241467,66.4003186 149.771772,65.5860399 150.187773,64.6269711 C150.599575,63.6775802 150.878181,62.6133819 151.021682,61.4341864 C151.156214,60.3278605 151.15297,59.3185041 151.013858,58.4061172 C150.871502,57.4738051 150.579347,56.669584 150.140829,55.9921254 C149.695251,55.3036604 149.09663,54.7683353 148.344395,54.3867192 C147.601891,54.0102268 146.709208,53.8193239 145.664437,53.8210204 C144.586461,53.8229294 143.619547,54.0426765 142.76312,54.4766675 C142.150378,54.7873117 141.575802,55.19929 141.040344,55.7131718 Z M91.9313103,61.1113973 L91.3332621,65.2771036 C90.6354119,65.7782712 89.8022662,66.6139932 86.4519367,66.6196862 C84.424412,66.6232917 83.1334751,66.0615893 82.3304799,65.2218822 C81.5868315,64.4438485 81.2664349,63.4360102 81.1488861,62.4596728 C80.9655025,60.9375732 81.2734954,59.4830297 81.3330331,58.9943866 C81.6984646,55.9915561 82.3650193,53.7925672 83.9078464,52.5192486 C84.9238032,51.6808698 86.3174045,51.255608 88.2369217,51.2521922 C90.1234262,51.2489662 91.182128,51.7074368 91.7637652,52.3201858 C92.6138944,53.2158734 92.4135273,54.4060752 92.3990245,54.7222225 C92.3917731,54.8761214 92.5098943,55.0074383 92.6644633,55.0174958 C92.6644633,55.0174958 93.0835168,55.0452014 93.0835168,55.0452014 C93.0900049,55.0455809 93.0963022,55.0457707 93.1027903,55.0457707 C93.1027903,55.0457707 95.2474821,55.0419754 95.2474821,55.0419754 C95.3886932,55.0417857 95.508341,54.9387436 95.5285685,54.7996464 C95.5688328,54.5248677 95.5778016,54.3565467 95.5793282,54.3216301 C95.5942126,54.1669722 95.7522164,52.1729287 94.3002225,50.5680919 C93.3128895,49.4771368 91.573321,48.5508972 88.4951091,48.5561878 C84.9333445,48.5624728 82.6587003,49.5340661 81.1712128,50.9667867 C78.9524805,53.1039124 78.486293,56.2963176 78.1624615,58.9577621 C78.0802156,59.6346514 77.763063,61.5554458 78.1328835,63.5546129 C78.3851553,64.9184491 78.9555338,66.3158735 80.1168999,67.3977199 C81.3509707,68.5471223 83.2582752,69.347738 86.1905053,69.3426388 C92.3593327,69.3319876 94.0588278,66.5665522 94.0840168,66.5249938 C94.1044352,66.4915953 94.117793,66.4542117 94.1231361,66.41531 C94.1231361,66.41531 95.1621829,58.7044267 95.1621829,58.7044267 C95.1732508,58.6233974 95.1484434,58.5417987 95.0942489,58.4803151 C95.0400543,58.4188314 94.9618157,58.383725 94.8797606,58.383725 C94.8797606,58.383725 87.6424992,58.3964393 87.6424992,58.3964393 C87.4986165,58.396629 87.3776329,58.5034663 87.3604586,58.64541 C87.3604586,58.64541 87.0978822,60.8022713 87.0978822,60.8022713 C87.0881501,60.8827313 87.1135299,60.9635709 87.1675337,61.0241058 C87.2217282,61.0848303 87.2993943,61.1193674 87.380877,61.1193674 L91.9313103,61.1113973 Z M191.510158,59.1444902 C191.515882,59.192121 191.557864,59.2277967 191.605571,59.227607 L194.196986,59.2232424 C194.240876,59.2230526 194.280949,59.1923108 194.29049,59.1492343 C194.29049,59.1492343 194.733206,57.1902973 193.653132,55.6361275 C192.935627,54.6039994 191.548323,53.7426591 188.901568,53.7663797 C187.342521,53.7804222 185.689969,53.9320439 184.317931,54.9715729 C182.948565,56.0086349 181.852652,57.932086 181.417951,61.5053481 C181.329026,62.2357509 181.178083,63.4046991 181.303264,64.6153955 C181.429973,65.8403241 181.839485,67.1060521 182.869563,68.0136949 C183.74927,68.7890719 185.085051,69.3052308 187.094447,69.3018319 C189.317569,69.2980197 190.771662,68.7184795 191.742965,67.9148276 C193.198966,66.7090652 193.572985,64.9926469 193.822967,63.9229455 C193.822967,63.9229455 193.926013,63.4777584 193.926013,63.4777584 C193.933646,63.4494835 193.926013,63.4198803 193.908839,63.3972983 C193.889756,63.3745266 193.86304,63.3614328 193.834417,63.3614328 L191.204836,63.3659872 C191.160946,63.3659872 191.124689,63.3944518 191.11324,63.4354409 L191.038818,63.7001622 C190.800285,64.5487882 190.535038,65.49742 189.739294,66.1194674 C189.208798,66.5327741 188.445494,66.7992032 187.306264,66.8012906 C186.090703,66.803378 185.308317,66.4895079 184.817895,65.9978285 C184.361821,65.5414453 184.159546,64.9347688 184.085124,64.3003867 C183.970628,63.3249981 184.163362,62.283192 184.247326,61.5920704 C184.56028,59.0116552 185.22817,57.7187909 186.05063,57.0682788 C186.865456,56.4225108 187.827219,56.4171974 188.712651,56.3936667 C190.178193,56.354765 190.914781,56.7052597 191.271625,57.1821374 C191.586488,57.6047425 191.596029,58.1190038 191.563589,58.5167498 C191.54069,58.8034837 191.4968,59.0349962 191.510158,59.1444902 Z M111.879291,69.2441417 C112.96509,69.242229 113.969788,69.0581577 114.893767,68.6936204 C115.821753,68.3273753 116.632,67.8068517 117.324889,67.1326191 C118.014724,66.4616125 118.581668,65.6515086 119.024765,64.7015485 C119.464237,63.7591789 119.756964,62.697068 119.900847,61.5152158 C120.042821,60.347596 120.01019,59.300856 119.806197,58.3748061 C119.598388,57.4312979 119.225133,56.6255586 118.689675,55.9562599 C118.151165,55.2833556 117.465336,54.7664376 116.631046,54.4072138 C115.808777,54.0529238 114.852167,53.8745453 113.760834,53.876428 C112.692782,53.8783406 111.701441,54.062412 110.785859,54.4273288 C109.868368,54.7931944 109.058694,55.3129589 108.357218,55.9866222 C107.658223,56.6574391 107.081929,57.4673532 106.629863,58.4169338 C106.180468,59.3602522 105.884306,60.4140135 105.742522,61.5785971 C105.600548,62.7450783 105.631843,63.8003577 105.833356,64.7440557 C106.039066,65.7069198 106.407741,66.517593 106.934993,67.1775933 C107.465298,67.8415786 108.147119,68.354132 108.981791,68.7135457 C109.803869,69.0676459 110.769448,69.2460243 111.879291,69.2441417 Z M130.917414,67.1553908 L130.758266,68.4626772 C130.748534,68.5431373 130.773913,68.6239769 130.828108,68.6845117 C130.882112,68.7452363 130.959778,68.7797734 131.041451,68.7795836 C131.041451,68.7795836 133.37258,68.7755986 133.37258,68.7755986 C133.516272,68.7754088 133.637255,68.6685715 133.65462,68.5266278 C133.65462,68.5266278 135.350681,54.5878694 135.350681,54.5878694 C135.360604,54.5072196 135.335224,54.4265697 135.281029,54.3658452 C135.226835,54.3053103 135.149169,54.2705835 135.067686,54.2707725 C135.067686,54.2707725 132.70946,54.2749481 132.70946,54.2749481 C132.565768,54.2751378 132.444785,54.3819751 132.427419,54.5239188 C132.427419,54.5239188 131.423485,62.7739225 131.423485,62.7739225 C131.344292,63.4250039 131.174838,63.9567235 130.906728,64.3662349 C130.633466,64.7837164 130.259065,65.179375 129.785435,65.5547288 C129.784863,65.5551084 129.78429,65.5554879 129.783909,65.5558674 C128.898477,66.2674836 127.964384,66.6286051 126.978387,66.630313 C126.140852,66.6316413 125.554826,66.4225211 125.240918,65.9517158 C124.906972,65.4509277 124.837512,64.596419 124.983875,63.3931235 C124.983875,63.3931235 126.053454,54.6039994 126.053454,54.6039994 C126.063186,54.5235393 126.037806,54.4426997 125.983803,54.3819751 C125.929608,54.3214403 125.851942,54.2867134 125.770459,54.2869032 L123.412233,54.291078 C123.268351,54.2912678 123.147367,54.3981051 123.130193,54.5400488 C123.130193,54.5400488 122.004702,63.7876435 122.004702,63.7876435 C121.786206,65.5845218 122.016724,66.9286225 122.658662,67.8258282 C123.313195,68.7408717 124.484102,69.2223038 126.19123,69.2192818 C127.156428,69.2177494 128.081742,68.9999 128.967174,68.5655295 C129.631439,68.2395144 130.282155,67.7700375 130.917414,67.1553908 Z M173.248887,66.4293526 L174.760418,54.0083292 C174.763662,53.9813827 174.755266,53.9542464 174.737137,53.9339416 C174.718818,53.9136368 174.692866,53.9020612 174.665578,53.9020612 L172.097634,53.9064257 C172.049355,53.9066155 172.008709,53.9422912 172.002985,53.989922 L170.192429,68.8680138 C170.189185,68.8949603 170.197772,68.9220966 170.2159,68.9424014 C170.234029,68.9627062 170.259981,68.9742818 170.287269,68.9742818 L180.372607,68.9575826 C180.402185,68.9575826 180.429854,68.9439195 180.447983,68.9207683 C180.466111,68.897617 180.472218,68.8674445 180.464966,68.8389799 L179.857186,66.4895079 C179.846309,66.4475699 179.808335,66.4181565 179.764635,66.4183462 L173.248887,66.4293526 Z M160.250211,63.45233 L163.256672,63.4477756 C164.345143,63.4460677 165.260153,63.3158894 166.002275,63.0648312 C166.769013,62.8054234 167.393968,62.4499948 167.880574,62.004618 C168.37424,61.5529789 168.744442,61.0282806 168.992516,60.4316616 C169.232002,59.8555371 169.390388,59.2515173 169.467291,58.6196021 C169.541713,58.0089405 169.529118,57.4303491 169.431415,56.8840176 C169.326843,56.2987845 169.075716,55.7862311 168.678416,55.3461676 C168.292567,54.9186286 167.736691,54.5732576 167.002584,54.3235277 C166.311222,54.0884097 165.413959,53.9671503 164.309268,53.969026 C164.309268,53.969026 158.847259,53.9777771 158.847259,53.9777771 C158.79898,53.9779669 158.758525,54.0136426 158.7528,54.0612734 L156.954076,68.8410673 C156.950832,68.8682036 156.959419,68.8951501 156.977547,68.9154549 C156.995676,68.9357597 157.021628,68.9475251 157.049107,68.9473376 L159.497594,68.9431605 C159.545873,68.9431605 159.586328,68.907295 159.592243,68.8596642 L160.250211,63.45233 Z M100.846122,55.9035054 L100.998973,54.6474554 C101.008705,54.5669953 100.983326,54.4861557 100.929322,54.4254312 C100.875127,54.3648963 100.797461,54.3301695 100.715979,54.3303592 L98.38485,54.3343443 C98.2409673,54.3347238 98.1199837,54.4415611 98.1028093,54.5835048 C98.1028093,54.5835048 96.4065583,68.5222632 96.4065583,68.5222632 C96.3968262,68.6027233 96.422206,68.6835629 96.4762097,68.7440977 C96.5304043,68.8048223 96.6080704,68.8393594 96.689553,68.8391704 C96.689553,68.8391704 99.047779,68.8351846 99.047779,68.8351846 C99.1916617,68.8349948 99.3126453,68.7281575 99.3298196,68.5862138 C99.3298196,68.5862138 100.337189,60.3090738 100.337189,60.3090738 C100.403978,59.7598959 100.565799,59.2765662 100.825513,58.8600335 C101.088852,58.4379976 101.426805,58.0668186 101.838798,57.7457374 C101.840325,57.7444091 101.842042,57.7430807 101.843759,57.7417524 C102.255562,57.40549 102.68034,57.1644893 103.11943,57.0212172 C103.559284,56.8775657 103.981772,56.8045064 104.387277,56.8039371 C104.588217,56.8035576 104.771219,56.815323 104.935711,56.8401821 C105.108408,56.86599 105.280533,56.8963523 105.452086,56.9310792 C105.600548,56.961062 105.746721,56.8699751 105.784504,56.7240463 C105.784504,56.7240463 106.348395,54.5396693 106.348395,54.5396693 C106.367668,54.4650919 106.355455,54.3859602 106.314618,54.3204915 C106.273972,54.254833 106.208138,54.2087203 106.13238,54.1925903 C105.781451,54.1178232 105.350185,54.0796806 104.83839,54.0806121 C103.996657,54.0821475 103.175533,54.3009458 102.376164,54.7398706 C101.83231,55.0385597 101.322042,55.4260584 100.846122,55.9035054 Z M131.023514,66.916098 L131.041642,66.9242579 L131.045268,66.8940854 L131.023514,66.916098 Z M112.141677,66.7369686 C111.436384,66.7380991 110.84616,66.6185476 110.373103,66.3688177 C109.912067,66.1257297 109.552552,65.7851027 109.295127,65.3461778 C109.028735,64.8920718 108.859281,64.3531412 108.78276,63.7303347 C108.703567,63.0860848 108.712536,62.3721915 108.807949,61.5882751 C108.903553,60.802461 109.06919,60.0862905 109.305814,59.4399532 C109.536904,58.8086074 109.846042,58.2662609 110.235517,57.813673 C110.619841,57.3671576 111.076868,57.0170424 111.606792,56.7637071 C112.137669,56.5098024 112.759571,56.3849375 113.471351,56.3837909 C114.176453,56.3826603 114.766677,56.5022118 115.239925,56.7517519 C115.70306,56.9961684 116.068682,57.3341386 116.336411,57.7666115 C116.6112,58.2104702 116.784279,58.7431387 116.860419,59.3632885 C116.939611,60.0073485 116.931978,60.712323 116.838664,61.4784015 C116.743061,62.2645951 116.57666,62.9855097 116.338891,63.6411455 C116.106466,64.2817898 115.79561,64.8334347 115.404799,65.2951312 C115.019903,65.7496168 114.558868,66.1033375 114.021121,66.3562933 C113.481274,66.6103877 112.854411,66.7356322 112.141677,66.7369686 Z M140.282766,61.9380107 L140.397643,60.9943128 C140.492102,60.2181767 140.678348,59.5319889 140.959053,58.9365085 C141.234605,58.3514651 141.577519,57.8671866 141.990085,57.485191 C142.400551,57.1054726 142.862922,56.8181694 143.37777,56.623661 C143.89529,56.428014 144.443724,56.3300956 145.022498,56.3289518 C145.472466,56.328198 145.899725,56.4099864 146.304466,56.5750813 C146.696995,56.7350527 147.031322,57.001292 147.309546,57.3703836 C147.59922,57.7546563 147.805884,58.2700562 147.937745,58.9137368 C148.074376,59.5811379 148.079719,60.4088898 147.959499,61.3973722 C147.840615,62.3744686 147.640438,63.2039285 147.355917,63.8846131 C147.077311,64.5508756 146.742793,65.0945504 146.348738,65.5133602 C145.964796,65.9213535 145.532576,66.2181449 145.05055,66.4018367 C144.561654,66.5881853 144.045852,66.6815493 143.503143,66.6825059 C142.945168,66.683447 142.440052,66.5974838 141.988176,66.421762 C141.555574,66.253441 141.199875,65.9843552 140.921078,65.6145046 C140.63274,65.2319397 140.431037,64.7436761 140.310436,64.1523705 C140.185445,63.5396215 140.177812,62.8014383 140.282766,61.9380107 Z M160.537785,61.0895744 L161.116179,56.3363578 L164.082757,56.33179 C164.717826,56.3308547 165.237826,56.3798139 165.642186,56.484374 C165.995214,56.5756506 166.272866,56.705829 166.46789,56.889331 C166.643831,57.0548055 166.753174,57.2656337 166.80069,57.5189691 C166.85851,57.826577 166.860419,58.181626 166.811376,58.5841162 C166.763097,58.9816724 166.675127,59.3405167 166.545365,59.6598901 C166.427053,59.9515578 166.250157,60.201857 166.014678,60.411167 C165.772711,60.62617 165.449261,60.7859515 165.04929,60.8996204 C164.611727,61.0241058 164.06959,61.0840713 163.423454,61.0852099 L160.537785,61.0895744 Z" id="Shape" fill="#0045A0"></path>
                <path d="M69.5558337,45.6634433 L69.9143955,42.7598595 C67.7958469,45.2205334 65.1197051,46.4509653 61.8863518,46.4509653 C58.5869727,46.4509653 56.1735981,45.2861919 54.6466096,42.9566451 C53.1196211,40.6270984 52.6173674,37.3460733 53.1398486,33.1133802 C53.5045168,30.1604577 54.2628588,27.6257757 55.4150653,25.509524 C56.5672718,23.3930826 58.0276621,21.7853993 59.7966178,20.6862844 C61.5655735,19.5871695 63.5553147,19.037612 65.7660322,19.037612 C68.6694476,19.037612 70.8206275,20.0547487 72.2191902,22.0890222 L73.6471401,10.5230768 L82.6050783,10.5230768 L78.2662708,45.6634433 L69.5558337,45.6634433 Z M174.131456,45.6634433 L174.477805,42.8581574 C173.173129,44.0722695 171.859483,44.9580894 170.536869,45.5158067 C169.214255,46.0737138 167.760926,46.3524776 166.177262,46.3524776 C163.471733,46.3524776 161.421309,45.6552835 160.026372,44.2608953 C158.631244,42.8663173 158.081666,40.9715206 158.377446,38.5763154 C158.713681,35.8530077 159.992596,33.7777451 162.214572,32.3505277 C164.436358,30.9233102 167.671238,30.111119 171.91883,29.9143334 L175.852896,29.7175478 L175.980559,28.6839015 C176.260119,26.4200132 175.29454,25.2880691 173.083822,25.2880691 C171.038169,25.2880691 169.761544,26.1410597 169.253947,27.8472307 L161.265786,27.2073454 C162.829222,21.7609197 167.157725,19.037612 174.251486,19.037612 C178.177918,19.037612 180.97409,19.9071121 182.639999,21.6459225 C184.306482,23.3849227 184.917124,26.042572 184.476317,29.6190601 L182.495544,45.6634433 L174.131456,45.6634433 Z M19.7649789,39.4057752 C19.7649789,39.4057752 27.6394078,22.7541461 31.3977231,14.8043496 C32.671104,12.1110247 35.4100275,10.4065616 38.4025586,10.4452735 C38.5092302,10.4467916 38.9826692,10.4481199 39.0895317,10.4494483 C42.4165805,10.4927146 44.7822486,12.2267809 45.640965,16.029468 C47.8740091,25.9178968 52.3326553,45.6634433 52.3326553,45.6634433 L42.483942,45.6634433 L41.2872731,38.9209274 L29.3597029,38.9209274 L27.0373523,44.4406021 C22.1957186,41.7782087 19.7649789,39.4057752 19.7649789,39.4057752 Z M186.703254,45.6634433 L191.040726,10.5230768 L200,10.5230768 L195.66062,45.6634433 L186.703254,45.6634433 Z M125.778283,45.6634433 L128.96851,19.8249441 L137.926448,19.8249441 L134.736221,45.6634433 L125.778283,45.6634433 Z M139.190479,45.6634433 L142.380705,19.8249441 L151.091333,19.8249441 L150.70243,22.974842 C151.743003,21.7609197 152.893874,20.8585904 154.15447,20.2678541 C155.415256,19.6773075 156.837481,19.3820342 158.421145,19.3820342 C159.345124,19.3820342 160.176361,19.4640124 160.914857,19.6281585 L158.983127,27.2566841 C158.314664,27.0597087 157.402898,26.9614108 156.24802,26.9614108 C154.499483,26.9614108 153.104164,27.3058331 152.062255,27.9948673 C150.802041,28.8480477 150.042363,30.324414 149.783031,32.424346 L148.148417,45.6634433 L139.190479,45.6634433 Z M112.613398,45.6634433 L114.637106,29.2744481 C114.76267,28.2573113 114.664013,27.5191281 114.341326,27.0597087 C114.01864,26.6004791 113.411814,26.3706745 112.521039,26.3706745 C111.465199,26.3706745 110.585301,26.6824573 109.881535,27.3058331 C109.140559,27.9620381 108.699178,28.8643674 108.557395,30.012821 L106.624901,45.6634433 L97.6669631,45.6634433 L99.6904805,29.2744481 C99.8162347,28.2573113 99.7175777,27.5191281 99.3948912,27.0597087 C99.0722047,26.6004791 98.4653785,26.3706745 97.5746034,26.3706745 C96.5187639,26.3706745 95.6388659,26.6824573 94.9349093,27.3058331 C94.1941233,27.9620381 93.7527431,28.8643674 93.6109595,30.012821 L91.6784661,45.6634433 L82.7205279,45.6634433 L85.9109454,19.8249441 L94.6213824,19.8249441 L94.2506078,22.8272054 C96.3443491,20.3006833 98.9254596,19.037612 101.993939,19.037612 C103.610616,19.037612 104.962045,19.3820342 106.048226,20.0710685 C107.134597,20.7601027 107.893512,21.7609197 108.32535,23.0733297 C109.551407,21.6952613 110.856465,20.6781245 112.240715,20.0219195 C113.625157,19.3657145 115.142032,19.037612 116.791912,19.037612 C119.431415,19.037612 121.338529,19.8249441 122.513444,21.399988 C123.688168,22.974842 124.089284,25.2715596 123.716601,28.2901406 L121.571336,45.6634433 L112.613398,45.6634433 Z M175.18367,34.737573 L172.294757,34.8852096 C170.600033,34.9835076 169.33543,35.270621 168.50133,35.7463601 C167.66723,36.222289 167.191501,36.9358029 167.073953,37.8872811 C166.879501,39.462325 167.755583,40.2496571 169.702197,40.2496571 C171.187013,40.2496571 172.410016,39.8314166 173.371206,38.9947457 C174.332396,38.1580748 174.899912,37.0342905 175.074136,35.6233928 L175.18367,34.737573 Z M70.9429469,32.424346 C71.2184994,30.1932869 71.0706094,28.5854138 70.4990859,27.6011063 C69.9277533,26.6167988 68.9161855,26.1247399 67.4645732,26.1247399 C64.5279541,26.1247399 62.7883856,28.3229698 62.245486,32.7196193 C61.7065938,37.0834395 62.8889508,39.2653496 65.792557,39.2653496 C67.2443601,39.2653496 68.4000015,38.723952 69.2594812,37.6413466 C70.0739259,36.6570391 70.6046126,35.1639734 70.8517321,33.1625292 L70.9429469,32.424346 Z M37.7728333,19.2835465 L32.6155737,31.3908895 L39.8908094,31.3908895 L37.7728333,19.2835465 Z M129.271541,16.9705093 L130.067476,10.5230768 L139.124453,10.5230768 L138.328518,16.9705093 L129.271541,16.9705093 Z" id="Admiral" fill="#0045A0" fill-rule="nonzero"></path>
            </g>
        </g>
    </g>
</svg>